<svg width="265" height="157" viewBox="0 0 265 157" fill="none" xmlns="http://www.w3.org/2000/svg">
<path d="M87.6207 1.96902L73.2682 6.81584L44.1616 42.7126C47.2396 46.1121 50.0833 48.8216 52.6929 50.8411C55.3359 52.8607 57.661 54.4089 59.6684 55.486C61.9768 56.765 64.1013 57.6402 66.0417 58.1114C67.2796 58.347 68.5509 58.3806 69.8557 58.2124C71.1939 58.0441 72.5154 57.7411 73.8202 57.3036C75.125 56.8324 76.3963 56.2602 77.6341 55.587C78.872 54.9138 80.0095 54.2238 81.0466 53.517C82.1172 52.7765 83.0707 52.0528 83.9071 51.346C84.7435 50.6055 85.4126 49.9324 85.9145 49.3265C85.5464 51.6826 84.9108 53.8704 84.0075 55.8899C83.1376 57.8758 82.1005 59.6765 80.8961 61.2921C79.6917 62.9077 78.4036 64.3382 77.0319 65.5836C75.6937 66.7953 74.3722 67.8218 73.0674 68.6633C71.7627 69.5048 70.5583 70.1611 69.4542 70.6323C68.3502 71.0699 67.4636 71.3055 66.7945 71.3392C64.921 71.2382 62.5958 70.3126 59.8189 68.5623C58.648 67.8218 57.3098 66.8794 55.8042 65.735C54.3322 64.557 52.6929 63.1097 50.8862 61.3931C49.1131 59.6428 47.1727 57.5897 45.0649 55.2336C42.9572 52.8438 40.699 50.0838 38.2901 46.9536L39.0429 63.1601L51.3379 69.0672L13.8507 71.3392L27.4003 61.3426L28.4541 8.38096L15.8079 1.26219L49.4309 0L36.885 8.07804L38.0894 40.3397L59.4677 6.00804L55.8042 0L87.6207 1.96902Z" fill="black"/>
<path d="M87.6207 71.3392L95.4995 65.1292L93.7933 30.2926L84.5093 24.1836L106.088 20.498L102.224 60.9892L113.014 67.7545L87.6207 71.3392ZM106.64 8.27999C106.64 9.28974 106.44 10.249 106.038 11.1578C105.637 12.0329 105.085 12.8239 104.382 13.5307C103.679 14.2039 102.877 14.7424 101.973 15.1463C101.07 15.5166 100.116 15.7017 99.1128 15.7017C98.0422 15.7017 97.0385 15.5166 96.1017 15.1463C95.1984 14.7424 94.4122 14.2039 93.7431 13.5307C93.074 12.8239 92.5387 12.0329 92.1372 11.1578C91.7358 10.249 91.535 9.28974 91.535 8.27999C91.535 7.23657 91.7358 6.27731 92.1372 5.40219C92.5387 4.49341 93.074 3.70243 93.7431 3.02926C94.4122 2.35609 95.1984 1.83439 96.1017 1.46414C97.0385 1.06024 98.0422 0.858291 99.1128 0.858291C100.116 0.858291 101.07 1.06024 101.973 1.46414C102.877 1.83439 103.679 2.35609 104.382 3.02926C105.085 3.70243 105.637 4.49341 106.038 5.40219C106.44 6.27731 106.64 7.23657 106.64 8.27999Z" fill="black"/>
<path d="M126.061 64.5233L136.098 68.5623L110.956 71.0362L119.989 63.9175L118.433 9.39072L106.841 4.34194L132.234 0.959267L126.061 64.5233Z" fill="black"/>
<path d="M150.551 64.5233L160.588 68.5623L135.446 71.0362L144.479 63.9175L142.923 9.39072L131.331 4.34194L156.724 0.959267L150.551 64.5233Z" fill="black"/>
<path d="M174.84 52.3053C175.275 54.1902 175.86 56.0414 176.596 57.8589C177.332 59.6428 178.236 61.2416 179.306 62.6553C180.377 64.0689 181.615 65.2133 183.02 66.0884C184.425 66.9636 186.014 67.4011 187.787 67.4011C190.129 67.4011 192.17 66.9131 193.91 65.937C195.649 64.9609 197.071 63.7323 198.175 62.2514C199.279 60.7367 200.049 59.0875 200.484 57.3036C200.919 55.486 201.002 53.7526 200.735 52.1033C201.671 52.4736 202.441 52.9616 203.043 53.5675C203.679 54.1733 204.164 54.8465 204.498 55.587C204.867 56.2938 205.117 57.0343 205.251 57.8084C205.385 58.5489 205.452 59.2726 205.452 59.9794C205.452 61.595 204.984 63.1601 204.047 64.6748C203.11 66.1558 201.789 67.4853 200.082 68.6633C198.41 69.8077 196.419 70.7333 194.11 71.4401C191.802 72.147 189.276 72.5004 186.533 72.5004C182.853 72.5004 179.557 71.7767 176.647 70.3294C173.769 68.8821 171.327 66.9299 169.32 64.4728C167.312 61.9821 165.773 59.0706 164.703 55.7385C163.632 52.4063 163.097 48.8553 163.097 45.0855C163.097 41.2485 163.632 37.7143 164.703 34.4831C165.773 31.2182 167.346 28.4414 169.42 26.1526C171.528 23.8639 174.104 22.1305 177.148 20.9524C180.193 19.7744 183.706 19.3031 187.687 19.5388C190.43 19.7407 192.956 20.5317 195.265 21.9117C197.573 23.2917 199.58 25.0756 201.287 27.2634C203.026 29.4175 204.415 31.8914 205.452 34.6851C206.523 37.4787 207.175 40.3902 207.409 43.4194L174.84 52.3053ZM173.886 44.1768C173.886 44.648 173.886 45.1192 173.886 45.5904C173.886 46.028 173.92 46.4824 173.987 46.9536L196.017 38.8756C195.281 36.4521 194.445 34.3821 193.508 32.6656C192.605 30.9153 191.651 29.4848 190.648 28.3741C189.644 27.2634 188.624 26.4556 187.587 25.9507C186.583 25.4122 185.613 25.1429 184.676 25.1429C183.271 25.1429 182.033 25.4122 180.962 25.9507C179.892 26.4892 178.955 27.2297 178.152 28.1722C177.383 29.0809 176.713 30.158 176.145 31.4034C175.609 32.6487 175.174 33.9782 174.84 35.3919C174.505 36.8056 174.254 38.2697 174.087 39.7843C173.953 41.2653 173.886 42.7294 173.886 44.1768Z" fill="black"/>
<path d="M247.355 36.4017C247.054 35.1563 246.619 34.096 246.051 33.2209C245.515 32.3458 244.896 31.6221 244.194 31.05C243.525 30.4441 242.805 29.9897 242.036 29.6868C241.266 29.3502 240.497 29.0978 239.727 28.9295C237.921 28.5592 235.997 28.5761 233.956 28.98C233.254 29.2156 232.501 29.5858 231.698 30.0907C230.995 30.5619 230.193 31.2014 229.289 32.0092C228.386 32.7834 227.416 33.8268 226.379 35.1395L227.282 64.4223L236.315 68.9662L209.718 71.3392L216.593 64.3214L219.403 29.1819L208.714 24.2846L225.977 21.0029L226.178 27.3139C227.349 25.9002 228.553 24.739 229.791 23.8302C231.029 22.9214 232.15 22.1809 233.153 21.6087C234.324 20.9692 235.462 20.4812 236.566 20.1446C238.573 19.6734 240.614 19.4883 242.688 19.5892C243.558 19.6229 244.461 19.7239 245.398 19.8922C246.368 20.0605 247.339 20.3297 248.309 20.7C249.313 21.0366 250.283 21.5078 251.219 22.1136C252.156 22.6858 253.06 23.4095 253.929 24.2846L247.355 36.4017Z" fill="black"/>
<path d="M24.6904 135.391V149.982L37.3367 156.293H0L12.4456 148.821L15.9584 96.9196L0.95349 87.7308C2.69319 87.4616 4.46635 87.2428 6.27296 87.0745C8.11303 86.9062 9.91964 86.7884 11.6928 86.7211C13.4994 86.6201 15.2391 86.5528 16.9119 86.5191C18.6181 86.4855 20.2073 86.4687 21.6793 86.4687C25.0249 86.4687 28.3538 86.5865 31.6659 86.8221C34.978 87.0577 38.1396 87.5121 41.1506 88.1852C44.1951 88.8247 47.0054 89.7167 49.5815 90.8611C52.191 92.0055 54.4493 93.4864 56.3563 95.304C58.2633 97.0879 59.752 99.2589 60.8226 101.817C61.9267 104.375 62.4787 107.371 62.4787 110.804C62.4787 113.934 61.9768 116.711 60.9732 119.134C60.003 121.558 58.6647 123.695 56.9585 125.546C55.2857 127.364 53.3118 128.895 51.0368 130.141C48.7618 131.386 46.353 132.412 43.8104 133.22C41.2677 133.994 38.6582 134.55 35.9817 134.886C33.3052 135.223 30.6957 135.391 28.153 135.391H24.6904ZM24.6904 93.1835V130.342C28.6047 130.342 31.9168 129.955 34.6267 129.181C37.3367 128.407 39.5949 127.431 41.4015 126.253C43.2081 125.041 44.6133 123.712 45.617 122.264C46.6541 120.783 47.4236 119.37 47.9254 118.023C48.4272 116.643 48.7284 115.415 48.8287 114.338C48.9625 113.227 49.0295 112.419 49.0295 111.914C49.0295 111.241 48.9625 110.316 48.8287 109.138C48.7284 107.926 48.444 106.63 47.9756 105.25C47.5072 103.87 46.8046 102.473 45.8679 101.06C44.9311 99.6123 43.6263 98.3164 41.9536 97.172C40.2808 95.994 38.1898 95.0347 35.6806 94.2942C33.2049 93.5538 30.1938 93.1835 26.6475 93.1835H24.6904Z" fill="black"/>
<path d="M133.388 121.305C133.388 126.926 132.518 131.958 130.779 136.401C129.072 140.81 126.731 144.546 123.753 147.609C120.775 150.639 117.296 152.961 113.315 154.577C109.367 156.192 105.152 157 100.668 157C97.7243 157 94.8304 156.647 91.9867 155.94C89.1764 155.233 86.4999 154.206 83.9573 152.86C81.4481 151.514 79.1229 149.881 76.9818 147.963C74.8406 146.011 73.0005 143.789 71.4616 141.298C69.9226 138.774 68.7182 136.014 67.8483 133.018C66.9785 129.989 66.5436 126.741 66.5436 123.274C66.5436 117.889 67.4134 112.924 69.1531 108.38C70.9263 103.803 73.3685 99.8479 76.4799 96.5157C79.6248 93.1835 83.3216 90.575 87.5705 88.6901C91.8529 86.8052 96.5032 85.8628 101.522 85.8628C105.737 85.8628 109.768 86.6538 113.616 88.2357C117.463 89.784 120.842 92.0728 123.753 95.1021C126.697 98.1313 129.039 101.851 130.779 106.26C132.518 110.635 133.388 115.651 133.388 121.305ZM119.889 122.264C119.889 118.091 119.186 114.439 117.781 111.309C116.376 108.145 114.553 105.503 112.311 103.382C110.07 101.262 107.527 99.6796 104.683 98.6362C101.839 97.5591 98.9957 97.0206 96.1519 97.0206C92.8733 97.0206 89.8288 97.6264 87.0185 98.8381C84.2082 100.05 81.7659 101.8 79.6917 104.089C77.6174 106.344 75.9781 109.104 74.7737 112.369C73.6027 115.6 73.0173 119.235 73.0173 123.274C73.0173 127.111 73.6027 130.528 74.7737 133.523C75.9446 136.519 77.5505 139.06 79.5913 141.147C81.6321 143.2 84.0075 144.782 86.7174 145.893C89.4608 146.97 92.3714 147.508 95.4494 147.508C98.5607 147.508 101.572 146.97 104.482 145.893C107.427 144.782 110.036 143.166 112.311 141.046C114.62 138.892 116.46 136.25 117.831 133.119C119.203 129.955 119.889 126.337 119.889 122.264Z" fill="black"/>
<path d="M206.255 121.305C206.255 126.926 205.385 131.958 203.645 136.401C201.939 140.81 199.597 144.546 196.62 147.609C193.642 150.639 190.163 152.961 186.181 154.577C182.234 156.192 178.018 157 173.535 157C170.591 157 167.697 156.647 164.853 155.94C162.043 155.233 159.367 154.206 156.824 152.86C154.315 151.514 151.99 149.881 149.848 147.963C147.707 146.011 145.867 143.789 144.328 141.298C142.789 138.774 141.585 136.014 140.715 133.018C139.845 129.989 139.41 126.741 139.41 123.274C139.41 117.889 140.28 112.924 142.02 108.38C143.793 103.803 146.235 99.8479 149.347 96.5157C152.491 93.1835 156.188 90.575 160.437 88.6901C164.72 86.8052 169.37 85.8628 174.388 85.8628C178.604 85.8628 182.635 86.6538 186.483 88.2357C190.33 89.784 193.709 92.0728 196.62 95.1021C199.564 98.1313 201.906 101.851 203.645 106.26C205.385 110.635 206.255 115.651 206.255 121.305ZM192.756 122.264C192.756 118.091 192.053 114.439 190.648 111.309C189.243 108.145 187.419 105.503 185.178 103.382C182.936 101.262 180.394 99.6796 177.55 98.6362C174.706 97.5591 171.862 97.0206 169.019 97.0206C165.74 97.0206 162.695 97.6264 159.885 98.8381C157.075 100.05 154.633 101.8 152.558 104.089C150.484 106.344 148.845 109.104 147.64 112.369C146.469 115.6 145.884 119.235 145.884 123.274C145.884 127.111 146.469 130.528 147.64 133.523C148.811 136.519 150.417 139.06 152.458 141.147C154.499 143.2 156.874 144.782 159.584 145.893C162.327 146.97 165.238 147.508 168.316 147.508C171.427 147.508 174.438 146.97 177.349 145.893C180.293 144.782 182.903 143.166 185.178 141.046C187.486 138.892 189.326 136.25 190.698 133.119C192.07 129.955 192.756 126.337 192.756 122.264Z" fill="black"/>
<path d="M264.819 154.728L207.158 157L219.905 145.842L222.916 97.0206L209.115 89.8008L242.538 87.6299L231.949 94.8496L232.551 146.044L255.786 148.922L264.819 131.857V154.728Z" fill="black"/>
<path d="M179.291 134.858C178.766 136.598 177.952 138.02 176.849 139.125C175.746 140.23 174.469 141.044 173.017 141.568C171.57 142.076 170.004 142.309 168.32 142.27C166.632 142.246 164.931 141.972 163.219 141.449C161.49 140.921 159.922 140.151 158.513 139.14C157.117 138.15 155.967 137.008 155.065 135.712C154.167 134.4 153.558 133 153.238 131.513C152.923 130.009 152.996 128.492 153.458 126.963C153.726 126.077 154.128 125.206 154.666 124.351C155.225 123.484 155.903 122.715 156.7 122.044C157.514 121.378 158.436 120.842 159.468 120.436C160.499 120.03 161.634 119.832 162.873 119.841C162.349 119.259 161.936 118.631 161.632 117.958C161.349 117.274 161.154 116.589 161.045 115.906C160.937 115.222 160.899 114.568 160.93 113.944C160.982 113.309 161.085 112.734 161.241 112.219C161.698 110.705 162.377 109.47 163.277 108.514C164.183 107.542 165.222 106.822 166.395 106.354C167.568 105.886 168.826 105.655 170.171 105.661C171.515 105.668 172.859 105.876 174.204 106.287C175.564 106.703 176.795 107.317 177.896 108.128C179.018 108.928 179.924 109.865 180.614 110.938C181.325 111.999 181.782 113.177 181.986 114.47C182.211 115.752 182.114 117.086 181.696 118.471C181.511 119.083 181.236 119.676 180.87 120.25C180.509 120.808 180.063 121.331 179.531 121.819C179.004 122.291 178.396 122.712 177.707 123.082C177.023 123.436 176.269 123.707 175.443 123.894C176.263 124.479 176.983 125.192 177.603 126.032C178.228 126.856 178.71 127.751 179.048 128.716C179.407 129.67 179.611 130.673 179.66 131.726C179.725 132.784 179.602 133.828 179.291 134.858ZM173.433 133.068C173.778 131.925 173.87 130.81 173.709 129.723C173.564 128.64 173.249 127.656 172.765 126.769C172.297 125.888 171.703 125.134 170.982 124.51C170.262 123.885 169.51 123.453 168.725 123.213C167.989 122.988 167.154 122.917 166.219 123.001C165.306 123.074 164.4 123.324 163.501 123.753C162.618 124.187 161.799 124.816 161.043 125.64C160.303 126.469 159.743 127.512 159.364 128.768C158.985 130.024 158.873 131.203 159.03 132.307C159.202 133.415 159.533 134.404 160.022 135.274C160.532 136.134 161.143 136.857 161.858 137.445C162.593 138.021 163.328 138.422 164.065 138.647C164.881 138.897 165.754 138.988 166.683 138.92C167.634 138.841 168.542 138.582 169.409 138.144C170.281 137.689 171.07 137.042 171.778 136.203C172.502 135.369 173.054 134.324 173.433 133.068ZM176.281 116.341C176.554 115.439 176.66 114.566 176.6 113.721C176.557 112.881 176.378 112.114 176.063 111.42C175.764 110.73 175.365 110.142 174.865 109.655C174.365 109.168 173.803 108.829 173.179 108.639C172.571 108.453 171.932 108.425 171.264 108.555C170.611 108.689 169.973 108.978 169.35 109.421C168.743 109.868 168.179 110.461 167.659 111.199C167.155 111.942 166.747 112.829 166.436 113.86C166.178 114.713 166.073 115.525 166.12 116.296C166.183 117.071 166.363 117.777 166.661 118.413C166.963 119.033 167.361 119.568 167.854 120.018C168.369 120.457 168.954 120.776 169.61 120.977C170.507 121.251 171.317 121.288 172.042 121.087C172.788 120.875 173.435 120.528 173.983 120.044C174.547 119.566 175.016 118.997 175.39 118.338C175.785 117.667 176.082 117.001 176.281 116.341Z" fill="black"/>
</svg>
